<mxfile host="app.diagrams.net" modified="2021-11-12T07:29:05.851Z" agent="5.0 (Windows NT 10.0; Win64; x64) AppleWebKit/537.36 (KHTML, like Gecko) Chrome/95.0.4638.69 Safari/537.36" etag="VCSscwnHPyKJabEUulI3" version="15.7.1" type="github">
  <diagram name="STRUKTUR ORG" id="b98fa263-6416-c6ec-5b7d-78bf54ef71d0">
    <mxGraphModel dx="441" dy="795" grid="1" gridSize="10" guides="1" tooltips="1" connect="1" arrows="1" fold="1" page="1" pageScale="1.5" pageWidth="1169" pageHeight="826" background="none" math="0" shadow="0">
      <root>
        <mxCell id="0" style=";html=1;" />
        <mxCell id="1" style=";html=1;" parent="0" />
        <mxCell id="JLo76ftaHRV5LtM4uzKv-19" style="edgeStyle=orthogonalEdgeStyle;rounded=0;hachureGap=4;orthogonalLoop=1;jettySize=auto;html=1;exitX=0.5;exitY=1;exitDx=0;exitDy=0;entryX=0.5;entryY=0;entryDx=0;entryDy=0;fontFamily=Times New Roman;fontSize=16;endArrow=none;endFill=0;startSize=14;endSize=14;sourcePerimeterSpacing=8;targetPerimeterSpacing=8;" edge="1" parent="1" source="303ed1de8c2c98b4-3" target="JLo76ftaHRV5LtM4uzKv-5">
          <mxGeometry relative="1" as="geometry">
            <Array as="points">
              <mxPoint x="920" y="600" />
              <mxPoint x="1010" y="600" />
            </Array>
          </mxGeometry>
        </mxCell>
        <mxCell id="JLo76ftaHRV5LtM4uzKv-20" style="edgeStyle=orthogonalEdgeStyle;rounded=0;hachureGap=4;orthogonalLoop=1;jettySize=auto;html=1;exitX=0.5;exitY=1;exitDx=0;exitDy=0;entryX=0.5;entryY=0;entryDx=0;entryDy=0;fontFamily=Times New Roman;fontSize=16;endArrow=none;endFill=0;startSize=14;endSize=14;sourcePerimeterSpacing=8;targetPerimeterSpacing=8;" edge="1" parent="1" source="303ed1de8c2c98b4-3" target="JLo76ftaHRV5LtM4uzKv-6">
          <mxGeometry relative="1" as="geometry">
            <Array as="points">
              <mxPoint x="920" y="600" />
              <mxPoint x="1190" y="600" />
            </Array>
          </mxGeometry>
        </mxCell>
        <mxCell id="303ed1de8c2c98b4-3" value="KEPALA DESA" style="whiteSpace=wrap;html=1;rounded=1;shadow=1;strokeWidth=1;fontSize=16;align=center;fillColor=#f5f5f5;strokeColor=#666666;fontFamily=Times New Roman;" parent="1" vertex="1">
          <mxGeometry x="600" y="240" width="640" height="40" as="geometry" />
        </mxCell>
        <mxCell id="JLo76ftaHRV5LtM4uzKv-8" style="edgeStyle=orthogonalEdgeStyle;rounded=0;hachureGap=4;orthogonalLoop=1;jettySize=auto;html=1;exitX=0;exitY=0.5;exitDx=0;exitDy=0;entryX=0.5;entryY=1;entryDx=0;entryDy=0;fontFamily=Times New Roman;fontSize=16;endArrow=none;startSize=14;endSize=14;sourcePerimeterSpacing=8;targetPerimeterSpacing=8;endFill=0;" edge="1" parent="1" source="303ed1de8c2c98b4-6" target="303ed1de8c2c98b4-3">
          <mxGeometry relative="1" as="geometry" />
        </mxCell>
        <mxCell id="JLo76ftaHRV5LtM4uzKv-12" style="edgeStyle=orthogonalEdgeStyle;rounded=0;hachureGap=4;orthogonalLoop=1;jettySize=auto;html=1;exitX=0.5;exitY=1;exitDx=0;exitDy=0;entryX=0.5;entryY=0;entryDx=0;entryDy=0;fontFamily=Times New Roman;fontSize=16;endArrow=none;endFill=0;startSize=14;endSize=14;sourcePerimeterSpacing=8;targetPerimeterSpacing=8;" edge="1" parent="1" source="303ed1de8c2c98b4-6" target="303ed1de8c2c98b4-14">
          <mxGeometry relative="1" as="geometry" />
        </mxCell>
        <mxCell id="303ed1de8c2c98b4-6" value="SEKRETARIS" style="whiteSpace=wrap;html=1;rounded=1;shadow=1;strokeWidth=1;fontSize=16;align=center;fillColor=#f5f5f5;strokeColor=#666666;fontFamily=Times New Roman;" parent="1" vertex="1">
          <mxGeometry x="955" y="360" width="285" height="40" as="geometry" />
        </mxCell>
        <mxCell id="303ed1de8c2c98b4-14" value="KAUR KESRA" style="whiteSpace=wrap;html=1;rounded=1;shadow=1;strokeWidth=1;fontSize=16;align=center;fillColor=#f5f5f5;strokeColor=#666666;fontFamily=Times New Roman;" parent="1" vertex="1">
          <mxGeometry x="1113" y="480" width="125" height="80" as="geometry" />
        </mxCell>
        <mxCell id="JLo76ftaHRV5LtM4uzKv-9" style="edgeStyle=orthogonalEdgeStyle;rounded=0;hachureGap=4;orthogonalLoop=1;jettySize=auto;html=1;exitX=0.5;exitY=0;exitDx=0;exitDy=0;entryX=0.5;entryY=1;entryDx=0;entryDy=0;fontFamily=Times New Roman;fontSize=16;endArrow=none;endFill=0;startSize=14;endSize=14;sourcePerimeterSpacing=8;targetPerimeterSpacing=8;" edge="1" parent="1" source="JLo76ftaHRV5LtM4uzKv-2" target="303ed1de8c2c98b4-6">
          <mxGeometry relative="1" as="geometry" />
        </mxCell>
        <mxCell id="JLo76ftaHRV5LtM4uzKv-2" value="KAUR KEUANGAN" style="whiteSpace=wrap;html=1;rounded=1;shadow=1;strokeWidth=1;fontSize=16;align=center;fillColor=#f5f5f5;strokeColor=#666666;fontFamily=Times New Roman;" vertex="1" parent="1">
          <mxGeometry x="955" y="480" width="125" height="80" as="geometry" />
        </mxCell>
        <mxCell id="JLo76ftaHRV5LtM4uzKv-13" style="edgeStyle=orthogonalEdgeStyle;rounded=0;hachureGap=4;orthogonalLoop=1;jettySize=auto;html=1;exitX=0.5;exitY=0;exitDx=0;exitDy=0;entryX=0.5;entryY=1;entryDx=0;entryDy=0;fontFamily=Times New Roman;fontSize=16;endArrow=none;endFill=0;startSize=14;endSize=14;sourcePerimeterSpacing=8;targetPerimeterSpacing=8;" edge="1" parent="1" source="JLo76ftaHRV5LtM4uzKv-3" target="303ed1de8c2c98b4-3">
          <mxGeometry relative="1" as="geometry">
            <Array as="points">
              <mxPoint x="670" y="600" />
              <mxPoint x="920" y="600" />
            </Array>
          </mxGeometry>
        </mxCell>
        <mxCell id="JLo76ftaHRV5LtM4uzKv-3" value="KAUR PEMERINTAHAN" style="whiteSpace=wrap;html=1;rounded=1;shadow=1;strokeWidth=1;fontSize=16;align=center;fillColor=#f5f5f5;strokeColor=#666666;fontFamily=Times New Roman;" vertex="1" parent="1">
          <mxGeometry x="600" y="640" width="140" height="80" as="geometry" />
        </mxCell>
        <mxCell id="JLo76ftaHRV5LtM4uzKv-16" style="edgeStyle=orthogonalEdgeStyle;rounded=0;hachureGap=4;orthogonalLoop=1;jettySize=auto;html=1;exitX=0.5;exitY=0;exitDx=0;exitDy=0;entryX=0.5;entryY=1;entryDx=0;entryDy=0;fontFamily=Times New Roman;fontSize=16;endArrow=none;endFill=0;startSize=14;endSize=14;sourcePerimeterSpacing=8;targetPerimeterSpacing=8;" edge="1" parent="1" source="JLo76ftaHRV5LtM4uzKv-4" target="303ed1de8c2c98b4-3">
          <mxGeometry relative="1" as="geometry">
            <Array as="points">
              <mxPoint x="840" y="600" />
              <mxPoint x="920" y="600" />
            </Array>
          </mxGeometry>
        </mxCell>
        <mxCell id="JLo76ftaHRV5LtM4uzKv-4" value="KAUR PEMBANGUNAN" style="whiteSpace=wrap;html=1;rounded=1;shadow=1;strokeWidth=1;fontSize=16;align=center;fillColor=#f5f5f5;strokeColor=#666666;fontFamily=Times New Roman;" vertex="1" parent="1">
          <mxGeometry x="770" y="640" width="140" height="80" as="geometry" />
        </mxCell>
        <mxCell id="JLo76ftaHRV5LtM4uzKv-5" value="KAUR UMUM" style="whiteSpace=wrap;html=1;rounded=1;shadow=1;strokeWidth=1;fontSize=16;align=center;fillColor=#f5f5f5;strokeColor=#666666;fontFamily=Times New Roman;" vertex="1" parent="1">
          <mxGeometry x="940" y="640" width="140" height="80" as="geometry" />
        </mxCell>
        <mxCell id="JLo76ftaHRV5LtM4uzKv-6" value="KAUR TRANTIB" style="whiteSpace=wrap;html=1;rounded=1;shadow=1;strokeWidth=1;fontSize=16;align=center;fillColor=#f5f5f5;strokeColor=#666666;fontFamily=Times New Roman;" vertex="1" parent="1">
          <mxGeometry x="1105.5" y="640" width="140" height="80" as="geometry" />
        </mxCell>
      </root>
    </mxGraphModel>
  </diagram>
</mxfile>
